<?xml version="1.0" encoding="utf-8"?>
<!-- Generator: Adobe Illustrator 17.1.0, SVG Export Plug-In . SVG Version: 6.00 Build 0)  -->
<!DOCTYPE svg PUBLIC "-//W3C//DTD SVG 1.1//EN" "http://www.w3.org/Graphics/SVG/1.1/DTD/svg11.dtd">
<svg version="1.1" id="Layer_1" xmlns="http://www.w3.org/2000/svg" xmlns:xlink="http://www.w3.org/1999/xlink" x="0px" y="0px"
	 viewBox="0 0 143 57" enable-background="new 0 0 143 57" xml:space="preserve">
<path fill="#0055A5" d="M32.2,30.1c-0.4,2-0.6,3.3-0.6,4.1c0,0.6,0.1,1.1,0.3,1.4c0.2,0.3,0.6,0.5,1,0.5c1.6,0,4.2-2.8,7.9-8.3
	c0.1-0.1,0.2-0.3,0.4-0.6l1.1-5.7c-1.3-0.8-2.5-1.2-3.6-1.2C35.7,20.3,33.5,23.6,32.2,30.1"/>
<path fill="#0055A5" d="M18.6,23.7c0-1.1-0.2-1.9-0.5-2.4c-0.4-0.5-0.9-0.8-1.7-0.8c-1.3,0-2.5,0.9-3.5,2.6c-1,1.7-1.7,3.9-1.9,6.6
	c2.2,0,4-0.6,5.5-1.7C17.9,26.9,18.6,25.5,18.6,23.7"/>
<path fill="#009B68" d="M111.9,9c-0.2,0-0.5,0-0.7,0l-1,5.1h31.1l1.6-8.2C133.9,7.4,123.4,8.5,111.9,9"/>
<path fill="#009B68" d="M102,9.4l-0.9,4.7h5.7l1-4.9C105.9,9.3,104,9.4,102,9.4"/>
<path fill="#0055A5" d="M95.1,9.5h-8.6l-0.3,1.8l0.3,0c1.6,0.1,2.4,0.5,2.4,1.3l-0.4,2.4l-0.7,3.5c-1.2-0.2-2.1-0.3-2.8-0.3
	c-3.1,0-6,1.3-8.6,4c-1.7,1.7-3,3.8-4.1,6.2c-1,2.4-1.5,4.6-1.5,6.7c0,1.5,0.4,2.7,1.2,3.7c0.8,0.9,1.8,1.4,3,1.4
	c1.8,0,3.6-0.9,5.6-2.6c2-1.8,3.6-4,4.8-6.8l-1.8,8.9h8.6l0.3-1.8l-0.3,0c-1.6-0.1-2.3-0.5-2.3-1.3c0-0.1,0.1-0.9,0.4-2.5L95.1,9.5z
	 M86,27.2c-3.9,5.9-6.7,8.8-8.3,8.8c-0.5,0-0.8-0.2-1-0.5c-0.2-0.3-0.4-0.8-0.4-1.4c0-2.1,0.6-4.8,1.7-8c1.4-3.8,3.2-5.8,5.5-5.8
	c1.1,0,2.4,0.4,3.7,1.2L86,27.2z"/>
<path fill="#0055A5" d="M67.4,25c0.1-0.6,0.2-1.1,0.2-1.5c0-0.7-0.2-1-0.7-1c-1.5,0-4.2,3-8.2,8.9L57,39.8h-5.6l3-15.5
	c0.2-0.9,0.3-1.7,0.4-2.5c0-0.8-0.8-1.2-2.4-1.3l-0.3,0l0.3-1.8h8.6l-1.7,8.8c1.5-2.9,3.1-5.2,5-6.8c1.9-1.6,3.7-2.5,5.5-2.5
	c0.4,0,0.8,0.1,1.2,0.2V9.6c-0.9,0-1.9,0-2.8,0C38.8,9.6,13.3,5.7,0,0l0,47.4c0.8,0,1.5,0,2.3,0v0c30.5,0,56.8,3.9,68.7,9.6V39.8
	h-6.6L67.4,25z M11.9,36c0.8,0.9,1.9,1.3,3.3,1.3c2.2,0,5-0.9,8.4-2.7l-0.5,2.6c-4.1,2-7.6,3.1-10.5,3.1c-2.3,0-4.1-0.6-5.5-1.9
	c-1.4-1.3-2.1-3-2.1-5.1c0-3.9,1.4-7.3,4.2-10.4c2.8-3.1,6-4.6,9.5-4.6c1.5,0,2.7,0.4,3.6,1.2c1,0.8,1.4,1.8,1.4,3.1
	c0,2.4-1.3,4.5-3.9,6.3c-2.6,1.8-5.7,2.7-9.2,2.7c0,0.4,0,0.7,0,1C10.7,33.9,11.1,35.1,11.9,36 M47.5,38l0.3,0l-0.4,1.8h-8.6
	l1.8-8.9c-1.3,2.8-2.9,5-4.9,6.8c-1.9,1.7-3.8,2.6-5.5,2.6c-1.2,0-2.2-0.5-3-1.4c-0.8-0.9-1.2-2.1-1.2-3.6c0-2.2,0.6-4.6,1.7-7.1
	c1.1-2.5,2.6-4.6,4.5-6.3c2.4-2.3,5.3-3.4,8.7-3.4c0.4,0,1.2,0.1,2.3,0.2c0.2,0,0.4,0,0.7,0.1h4.6l-3,15.5l-0.3,2l-0.1,0.4
	C45.1,37.5,45.9,37.9,47.5,38"/>
<path fill="#0055A5" d="M102.8,34.3l3-15.5h-8.6l-0.3,1.8l0.3,0c1.6,0.1,2.4,0.5,2.4,1.3l-0.4,2.5l-3,15.5h8.6l0.3-1.8l-0.3,0
	c-1.6-0.1-2.3-0.5-2.3-1.3l0.1-0.5L102.8,34.3z"/>
<path fill="#0055A5" d="M113.2,20c-1.6,1.1-2.4,2.6-2.4,4.4c0,1.6,1.2,3.6,3.5,6l1.5,1.5c1.1,1.1,1.7,2.2,1.7,3.1c0,1-0.3,1.8-1,2.5
	c-0.7,0.7-1.5,1-2.5,1c-1.1,0-2.1-0.2-2.9-0.6c-0.8-0.4-1.2-1-1.2-1.6c0.1-0.8,0.2-1.5,0.2-2l0.1-0.3H108l-0.9,4.9
	c2.4,1,4.8,1.4,7.2,1.4c2.6,0,4.7-0.6,6.3-1.8c1.6-1.2,2.4-2.8,2.4-4.7c0-1.6-1.2-3.5-3.6-5.8l-1.5-1.4c-1.3-1.2-2-2.4-2-3.5
	c0-1,0.3-1.8,0.9-2.4c0.6-0.5,1.5-0.8,2.7-0.8c1.8,0,2.7,0.6,2.7,1.7l-0.3,2.1l0,0.4h2.3l0.9-4.9c-2-0.6-3.8-0.9-5.7-0.9
	C116.9,18.3,114.8,18.9,113.2,20"/>
</svg>
